<svg width="24" height="24" viewBox="0 0 24 24" fill="none" xmlns="http://www.w3.org/2000/svg">
<path d="M12.0004 10.5V22C10.3547 20 5.31467 20 3.00037 20V9C7.93752 9 11.0575 10 12.0004 10.5Z" stroke="white" stroke-width="2" stroke-linecap="round" stroke-linejoin="round"/>
<path d="M12.0004 10.5V22C13.6461 20 18.6861 20 21.0004 20V9C16.0632 9 12.9432 10 12.0004 10.5Z" stroke="white" stroke-width="2" stroke-linecap="round" stroke-linejoin="round"/>
<path d="M12.0004 10C14.2095 10 16.0004 8.20914 16.0004 6C16.0004 3.79086 14.2095 2 12.0004 2C9.79123 2 8.00037 3.79086 8.00037 6C8.00037 8.20914 9.79123 10 12.0004 10Z" stroke="white" stroke-width="2"/>
</svg>
